<svg width="22" height="18" viewBox="0 0 22 18" fill="none" xmlns="http://www.w3.org/2000/svg">
<path d="M1.34999 7.83919L14.4538 2.49631C15.7473 1.9398 20.1341 0.158893 20.1341 0.158893C20.1341 0.158893 22.1588 -0.620192 21.99 1.27192C21.9337 2.05101 21.4841 4.77821 21.0339 7.72766L19.628 16.4653C19.628 16.4653 19.5155 17.7454 18.5578 17.9679C17.6001 18.1905 16.027 17.1889 15.746 16.9661C15.5211 16.7992 11.528 14.2948 10.0657 13.0704C9.67199 12.7366 9.22217 12.0686 10.122 11.2895C12.1467 9.45288 14.565 7.17099 16.027 5.72402C16.7019 5.05614 17.3768 3.49781 14.5649 5.39024L6.63514 10.6774C6.63514 10.6774 5.73517 11.234 4.0481 10.7331C2.36103 10.2323 0.39262 9.56441 0.39262 9.56441C0.39262 9.56441 -0.957166 8.72964 1.34869 7.83935L1.34999 7.83919Z" fill="#969696"/>
</svg>
