<svg width="60" height="60" viewBox="0 0 60 60" fill="none" xmlns="http://www.w3.org/2000/svg">
<path fill-rule="evenodd" clip-rule="evenodd" d="M50.0158 0.259909C47.9226 0.710912 44.9175 1.92817 41.6374 3.65362C35.0509 7.11843 33.6042 7.60573 31.4595 7.08164C28.4992 6.35831 27.0285 6.3951 22.2961 7.31103C18.428 8.05972 18.4495 8.0627 16.6649 6.52024C10.8889 1.52805 8.9136 0.55345 4.87896 0.704447C2.29081 0.80141 1.39035 1.41004 0.539479 3.63671C-0.840156 7.24722 0.282713 9.515 5.58308 13.8225C8.52549 16.2139 8.31273 15.768 10.3158 23.7406C12.4022 32.0449 12.6886 33.9416 13.1903 42.7778C13.6449 50.7813 17.1958 57.1648 22.5519 59.6066C24.7406 60.6044 29.1225 59.636 32.2164 57.4705C38.3978 53.1442 41.9744 44.904 45.1044 27.7775C46.9737 17.5495 46.659 18.2089 50.6013 16.2563C56.3911 13.3887 58.8214 10.9688 59.8312 7.06556C61.0033 2.53481 55.895 -1.00724 50.0158 0.259909ZM43.174 7.25866L43.6625 7.54126L43.299 7.91983C42.9587 8.2747 42.9536 8.31779 43.2176 8.60338C43.5919 9.00847 43.5741 9.29654 43.1746 9.29654C42.2848 9.29654 41.8067 9.98009 41.8067 11.2525C41.8067 12.3863 41.5252 13.0884 41.0213 13.2124C40.5856 13.3193 39.9448 12.908 39.9448 12.5213C39.9448 12.409 39.6777 12.2678 39.3511 12.2079C38.2326 12.0024 37.9276 10.954 38.9863 10.954C40.324 10.954 40.683 9.97462 39.6505 9.1414C38.7507 8.41508 38.9982 8.07149 40.4702 8.0032C41.4198 7.95911 41.6088 7.89298 42.0088 7.46452C42.5431 6.89202 42.5408 6.89252 43.174 7.25866ZM37.3228 20.3793C40.708 21.8853 41.5841 29.2643 38.6385 31.4623C37.527 32.2919 33.9888 31.9833 32.3368 30.9127C28.2727 28.2791 32.936 18.4278 37.3228 20.3793ZM19.1259 21.891C22.4034 22.784 22.8254 28.1677 19.7393 29.7171C17.2105 30.9868 14.6664 29.1481 14.6544 26.0421C14.643 23.0665 16.639 21.2134 19.1259 21.891ZM27.0995 44.936C34.6258 46.3338 34.4331 55.2781 26.8272 57.5687C22.5417 58.8593 19.4131 57.1128 19.168 53.2929C18.8226 47.9122 22.4644 44.0751 27.0995 44.936Z" fill="white"/>
</svg>
