<svg width="26" height="26" viewBox="0 0 26 26" fill="none" xmlns="http://www.w3.org/2000/svg">
<g clip-path="url(#clip0_2_116)">
<path d="M0.000345876 12.9848C-0.0107109 15.7628 2.23244 18.0239 5.01057 18.0349C6.29 18.04 7.52333 17.5574 8.45945 16.6852L15.9556 20.0697C15.9035 20.35 15.8749 20.6341 15.8701 20.9191C15.8613 23.7164 18.1217 25.9911 20.9189 26C23.7162 26.0089 25.9909 23.7484 25.9998 20.9512C26.0087 18.1539 23.7482 15.8792 20.951 15.8703C19.2797 15.865 17.7135 16.6845 16.7649 18.0605L9.72215 14.8804C10.2224 13.6725 10.2243 12.3157 9.72758 11.1064L16.7606 7.91013C18.3443 10.2006 21.485 10.7736 23.7755 9.18987C26.066 7.60617 26.6389 4.46555 25.0552 2.17503C23.4715 -0.115487 20.3308 -0.688408 18.0403 0.895291C16.6762 1.83846 15.8632 3.39203 15.8657 5.05044C15.8703 5.33589 15.8993 5.62037 15.9523 5.9009L8.47568 9.29835C6.45002 7.39624 3.26594 7.49641 1.36382 9.52208C0.483494 10.4597 -0.0044217 11.6987 0.000345876 12.9848Z" fill="white"/>
</g>
<defs>
<clipPath id="clip0_2_116">
<rect width="26" height="26" fill="white"/>
</clipPath>
</defs>
</svg>
