<svg width="26" height="26" viewBox="0 0 26 26" fill="none" xmlns="http://www.w3.org/2000/svg">
<g clip-path="url(#clip0_2_106)">
<path d="M13 0C5.83158 0 0 5.83158 0 13C0 20.1684 5.83158 26 13 26C20.1684 26 26 20.1684 26 13C26 5.83158 20.1684 0 13 0ZM19.2487 13.598L14.4625 18.3224C13.923 18.8554 13 18.4773 13 17.7244V14.0833H7.58333C6.98533 14.0833 6.5 13.598 6.5 13C6.5 12.402 6.98533 11.9167 7.58333 11.9167H13V8.27558C13 7.52267 13.923 7.14458 14.4625 7.67758L19.2487 12.402C19.5834 12.7324 19.5834 13.2676 19.2487 13.598Z" fill="white"/>
</g>
<defs>
<clipPath id="clip0_2_106">
<rect width="26" height="26" fill="white"/>
</clipPath>
</defs>
</svg>
