<svg width="26" height="26" viewBox="0 0 26 26" fill="none" xmlns="http://www.w3.org/2000/svg">
<g clip-path="url(#clip0_2_113)">
<path d="M13 16.25C5.71025 16.25 0 13.1571 0 9.20833C0 5.25958 5.71025 2.16666 13 2.16666C20.2898 2.16666 26 5.25958 26 9.20833C26 13.1571 20.2898 16.25 13 16.25ZM17.3333 23.439C18.5066 23.2212 19.5975 22.9179 20.5833 22.5387V17.2521C19.5758 17.5922 18.4838 17.8577 17.3333 18.0527V23.439ZM5.41667 22.5387C6.4025 22.9168 7.49342 23.2202 8.66667 23.439V18.0537C7.51617 17.8587 6.42417 17.5933 5.41667 17.2532V22.5387ZM15.1667 18.3278C14.4614 18.3842 13.7399 18.4167 13 18.4167C12.2601 18.4167 11.5386 18.3842 10.8333 18.3278V23.7315C11.5386 23.7932 12.2579 23.8333 13 23.8333C13.7421 23.8333 14.4614 23.7932 15.1667 23.7315V18.3278ZM22.75 16.3388V21.4847C24.7748 20.2464 26 18.6127 26 16.7917V14.0692C25.1398 14.9424 24.0305 15.6997 22.75 16.3399V16.3388ZM3.25 16.3388C1.9695 15.6986 0.860167 14.9413 0 14.0682V16.7906C0 18.6117 1.22525 20.2464 3.25 21.4836V16.3388Z" fill="white"/>
</g>
<defs>
<clipPath id="clip0_2_113">
<rect width="26" height="26" fill="white"/>
</clipPath>
</defs>
</svg>
